<svg id="Capa_1" enable-background="new 0 0 512 512" height="512" viewBox="0 0 512 512" width="512" xmlns="http://www.w3.org/2000/svg"><g><path d="m204.528 307.578c-79.012-79.311-100.359-194.572-64.069-293.324 3.522-9.585-7.331-18.108-15.829-12.428-15.85 10.594-30.853 22.998-44.716 37.223-106.387 109.162-105.025 284.681 2.992 392.235 108.354 107.89 283.322 107.62 391.342-.81 13.283-13.334 24.93-27.686 34.949-42.805 5.643-8.516-2.914-19.31-12.504-15.761-98.368 36.402-213.167 14.968-292.165-64.33z" fill="#fee97d"/><g><path d="m496.693 371.909c-20.035 7.414-40.752 12.427-61.709 15.043-108.66 93.429-272.253 88.776-375.437-13.966-19.759-19.674-35.932-41.629-48.547-65.029 12.419 45.273 36.398 87.973 71.906 123.329 108.354 107.89 283.322 107.62 391.342-.81 13.283-13.334 24.93-27.686 34.949-42.805 5.643-8.517-2.914-19.311-12.504-15.762z" fill="#fedf30"/></g><path d="m368.687 128.801 40.471 5.903c7.074 1.032 9.906 9.704 4.8 14.7l-29.345 28.713c-2.024 1.98-2.947 4.825-2.47 7.613l6.919 40.495c1.205 7.055-6.221 12.424-12.559 9.079l-36.11-19.056c-2.527-1.334-5.551-1.334-8.078 0l-36.11 19.056c-6.338 3.345-13.764-2.024-12.559-9.079l6.919-40.495c.476-2.788-.446-5.633-2.47-7.613l-29.345-28.713c-5.106-4.996-2.274-13.668 4.8-14.7l40.471-5.903c2.819-.411 5.254-2.183 6.509-4.736l18.065-36.742c3.164-6.435 12.353-6.435 15.517 0l18.065 36.742c1.256 2.553 3.691 4.324 6.51 4.736z" fill="#fee97d"/><g><path d="m413.959 149.403c5.106-4.996 2.274-13.668-4.8-14.7l-30.418-4.437-8.404 8.223c-7.713 7.546-11.23 18.388-9.414 29.015l1.823 10.671c2.414 14.129-12.459 24.88-25.151 18.182l-9.204-4.857c-9.632-5.083-21.157-5.083-30.789 0l-8.816 4.652-5.138 30.072c-1.205 7.055 6.221 12.424 12.559 9.079l36.11-19.056c2.527-1.334 5.551-1.334 8.078 0l36.11 19.056c6.338 3.345 13.764-2.024 12.559-9.079l-6.919-40.495c-.476-2.788.446-5.633 2.47-7.613z" fill="#fedf30"/></g></g></svg>