<?xml version="1.0" encoding="utf-8"?>
<!-- Generator: Adobe Illustrator 19.0.0, SVG Export Plug-In . SVG Version: 6.00 Build 0)  -->
<svg version="1.1" id="Layer_1" xmlns="http://www.w3.org/2000/svg" xmlns:xlink="http://www.w3.org/1999/xlink" x="0px" y="0px"
	 viewBox="-150 -38 278 197" style="enable-background:new -150 -38 278 197;" xml:space="preserve">
<style type="text/css">
	.st0{fill:#8167a9; opacity: 0.1;}
</style>
<path class="st0" d="M-101.7,62.7c0.7-0.4,1.4-0.5,2-0.8c-0.5,0.4-1.1,0.8-1.7,1.2c-2.6,1.5-5.4,2.5-8.4,3.2c0.7-0.1,1.3-0.2,2-0.3
	c0.7-0.2,1.3-0.3,2-0.5c-1.2,0.4-2.5,0.7-3.7,1c-0.7,0.2-1.3,0.3-2,0.4l-1,0.2c-0.3,0.1-0.7,0.1-1,0.1c0.3,0,0.7,0,1,0l1-0.1l1-0.1
	c0.3,0,0.7-0.1,1-0.1c2.3-0.3,4.5-1,6.7-1.9c2.4-1,4.8-2.3,6.9-4c2.1-1.6,4-3.6,5.5-5.6c0.9-1.2,1.6-2.4,2.3-3.5
	c0.9-0.7,1.9-1.3,2.8-1.8l-0.1,0c1.1-1,2.2-1.7,3.3-2.1c1.1-0.4,2.3-0.4,3.5-0.1c1.2,0.3,2.5,1,3.8,1.7c1.4,0.8,2.8,1.7,4.4,2.5
	c1.5,0.7,3.3,1.4,5.3,1.5c0.5,0,1,0,1.5,0c0.5,0,1-0.1,1.5-0.3c1-0.2,1.9-0.7,2.8-1.2c0.9-0.5,1.6-1.2,2.3-1.9
	c0.6-0.7,1.2-1.4,1.7-2.1c1-1.4,1.7-2.9,2.4-4.3c1.1-2.3,2.2-4.5,3.4-6.3c1.2-1.8,2.5-3.3,3.9-4c1.4-0.7,2.9-0.9,4.8-0.4
	c1.9,0.4,3.9,1.4,6,2.4c2.1,1.1,4.3,2.3,6.9,3.3c1.3,0.5,2.6,0.9,4.1,1.2c1.5,0.3,3.1,0.4,4.7,0.2c1.4-0.2,2.7-0.5,4-1.1
	c1.2-0.6,2.4-1.4,3.3-2.3C-9.8,35-8.5,33-7.5,31c1-2,1.9-3.9,2.7-5.7c0.8-1.8,1.7-3.4,2.7-4.7c2-2.5,4.3-3.3,7.4-2.5
	c1.5,0.4,3.2,1.2,5,2.1c1.7,0.9,3.6,1.9,5.6,2.9c2,0.9,4.3,1.8,7,2c1.3,0.1,2.7,0,4.1-0.3c1.3-0.3,2.6-0.8,3.8-1.5
	c2.3-1.4,4-3.2,5.4-4.9c1.4-1.8,2.6-3.5,3.7-5.1c1.1-1.6,2.3-3,3.5-4c1.2-1,2.4-1.5,3.7-1.7c1.3-0.1,2.9,0.1,4.6,0.7
	c1.7,0.5,3.6,1.3,5.6,2.1c2.2,0.8,4.6,1.6,7.4,1.7c0.4,0,0.7,0,1.1,0l1.1-0.1c0.7,0,1.4-0.3,2.1-0.4c0.4-0.1,0.7-0.2,1-0.3l1-0.4
	c0.6-0.3,1.2-0.7,1.8-1c2.3-1.5,4-3.4,5.5-5.1c1.5-1.8,2.8-3.5,4.2-5c1.3-1.5,2.7-2.8,4.1-3.6c1.4-0.8,3-1.3,4.8-1.5
	c1.8-0.2,3.7-0.1,5.8,0.1c2,0.2,4.1,0.6,6.3,1c1.6,0.3,3.2,0.5,5,0.7c1.8,0.1,3.6,0.1,5.4-0.1c1.8-0.2,3.5-0.5,5.2-1.1
	c1.7-0.6,3.3-1.3,4.6-2.4c0.5-0.4,1-0.9,1.4-1.2c0.4-0.4,0.8-0.9,1.1-1.3c0.3-0.4,0.5-0.9,0.7-1.3c0.2-0.4,0.3-0.8,0.4-1.1
	c0.2-0.5,0.3-1.1,0.2-1.7c0-0.4-0.1-0.7-0.3-0.8c-0.3-0.3-0.8,0-1.5,0.6l-0.2,0.3l-0.3,0.3c-0.2,0.2-0.4,0.4-0.7,0.6
	c-0.5,0.4-1.1,0.9-1.8,1.4c-1.6,1-3.4,1.5-5.8,2.1c-1.8,0.4-3.8,0.6-5.8,0.6c-2,0-4-0.3-6.1-0.7c-4.2-0.7-8.6-1.8-13.3-1.7
	c-1.6,0-3.3,0.2-5,0.7c-1.7,0.5-3.3,1.3-4.8,2.3c-1.5,1-2.7,2.2-3.9,3.4C77-3.7,76-2.5,75-1.3c-1.8,2.2-3.6,4.2-5.5,5.4
	c-0.2,0.2-0.5,0.3-0.7,0.4c-0.2,0.1-0.5,0.3-0.7,0.3l-0.7,0.3c-0.3,0-0.5,0.1-0.7,0.2c-1,0.2-2.1,0.2-3.1-0.1
	c-1.1-0.2-2.3-0.6-3.6-1.1l-4-1.6c-1.4-0.6-3-1.1-4.6-1.5c-1.7-0.4-3.6-0.5-5.6-0.3c-1.6,0.2-3.2,0.8-4.6,1.6
	c-1.4,0.8-2.6,1.8-3.6,2.8c-2,2-3.4,4.2-4.8,6.2c-1.4,2-2.6,3.8-4.1,5.1c-1.4,1.3-2.8,2-4.5,2.1c-2,0.1-4.5-0.9-7-2.1
	c-1.9-1-4-2.1-6.2-3.1c-1.1-0.5-2.3-1-3.6-1.4c-1.3-0.4-2.7-0.6-4.2-0.6c-1.5,0-3,0.3-4.4,0.8c-1.4,0.5-2.7,1.3-3.8,2.3
	c-2.2,2-3.5,4.3-4.6,6.4c-1.1,2.2-2,4.3-2.9,6.2c-0.9,1.9-2,3.7-3.2,4.9c-1.2,1.2-2.7,1.9-4.3,2.1c-1.6,0.1-3.5-0.3-5.5-1.1
	c-3-1.1-6-2.9-9.4-4.4c-1.7-0.7-3.6-1.4-5.6-1.7c-2.1-0.3-4.4-0.1-6.4,0.8c-1,0.4-1.9,1-2.8,1.6c-0.8,0.7-1.5,1.4-2.2,2.2
	c-1.3,1.6-2.1,3.2-2.9,4.8c-1.5,3.2-2.6,6.4-4.2,9c-0.8,1.3-1.7,2.3-2.8,2.9c-0.5,0.3-1.1,0.5-1.7,0.6c-0.2,0-0.3,0.1-0.5,0.1
	l-0.5,0c-0.3,0-0.6,0-1-0.1c-1.3-0.2-2.7-0.8-4.2-1.6c-1.4-0.8-2.9-1.7-4.6-2.4c-1.1-0.5-2.2-0.9-3.4-1.2c-1.3-0.3-2.5-0.3-3.8-0.1
	c-1.3,0.2-2.5,0.7-3.6,1.3c-1.1,0.6-2,1.4-2.9,2.1c-3.4,3.2-5.5,7-8.5,9.7c-5.9,5.6-14.5,8.2-22.6,7c-2-0.3-4.1-0.6-6-1.3
	c1.3,0.9,2.6,1.7,4.4,2.3c0.3,0.1,0.7,0.2,1.3,0.3l1.7,0.2c-0.6-0.1-1.3-0.1-1.9-0.2c-0.6-0.1-1.2-0.2-1.8-0.3
	c-0.8-0.1-1.6-0.3-2.3-0.5c-0.7-0.2-1.5-0.4-2.2-0.6c2.9,1.5,6.2,2.5,9.6,3c0.1,0,0.9-0.1,1.5-0.2c0.4,0,0.9-0.1,1.4-0.1l0.7-0.1
	l0.7-0.1c0.7-0.2,1.4-0.4,2.2-0.6c0.7-0.3,1.5-0.5,2.3-0.8c0.4-0.1,0.8-0.3,1.3-0.4l1.4-0.5l0.7-0.3l0.8-0.3
	C-102.8,63.1-102.2,62.9-101.7,62.7L-101.7,62.7z M-19.7,37.4c-1.4,0.2-3,0-4.4-0.4c-0.3-0.1-0.5-0.2-0.8-0.3
	c1.3,0.3,2.6,0.5,3.9,0.5c0.8,0,1.5-0.1,2.3-0.3c0.3-0.1,0.7-0.2,1-0.3l0.5-0.2l0.5-0.2c1.2-0.6,2.3-1.4,3.1-2.4
	c0.9-1,1.6-2.1,2.3-3.2c0.1,0,0.2,0,0.2,0c-0.7,1.3-1.6,2.6-2.6,3.6c-1,1.1-2.3,2-3.7,2.5c-0.2,0.1-0.4,0.1-0.6,0.2l-0.7,0.1
	C-19.1,37.1-19.2,37.3-19.7,37.4L-19.7,37.4z M-59.7,49.6c-0.6,0.5-1.3,0.9-2.1,1.1c0.7-0.4,1.3-0.9,2-1.4c1.8-1.5,3-3.6,4.1-5.7
	c1-2.1,1.9-4.3,3-6.5c1.1-2.1,2.4-4.2,4.3-5.7c1.9-1.5,4.4-2.2,6.8-1.9c1.8,0.1,3.4,0.7,5.1,1.3c1.6,0.7,3.2,1.4,4.7,2.2
	c0.6,0.3,1.1,0.7,1.7,1c-0.6-0.3-1.2-0.5-1.8-0.8c-1.5-0.8-3.1-1.5-4.7-2.2c-1.6-0.6-3.2-1.2-4.9-1.3c-0.5-0.1-1,0-1.4,0.1
	c-0.4,0.1-0.8,0.2-1.1,0.3c-0.3,0.1,0.1,0.2,0.1,0.3c-1,0-2.1,0.3-2.9,0.7c-0.7,0.3-1.1,0.4-1.6,0.6c-0.5,0.6-1,1.3-1.4,2
	c-0.2,0.4-0.4,0.8-0.5,1.2l-0.4,0.4c0.3-0.6,0.6-1.1,1-1.7c-1.1,0.7-1.9,2-2.6,3.5c-0.7,1.5-1.3,3.1-1.9,4.5l0.4,0l-0.3,0.6
	l-0.1-0.7c-0.7,1.4-1.4,2.9-2.2,4.3C-57.4,47.2-58.4,48.6-59.7,49.6L-59.7,49.6z M-73.2,47.4c2.3,1.3,4.5,2.9,7.2,3.4
	c-1.5-0.3-2.9-0.9-4.2-1.5c-1.3-0.7-2.7-1.4-4-2.1c-0.4-0.2-0.8-0.4-1.3-0.6c-1.5-0.7-3-1.2-4.7-1.2c1.8-0.2,3.6,0.4,5.1,0.9
	C-74.2,46.8-73.7,47.1-73.2,47.4L-73.2,47.4z M-1.4,15.4c-1.7,1-3,2.5-4,4.1c-0.9,1.4-1.6,2.9-2.3,4.5L-9,26.7
	c0.3-0.9,0.5-1.7,0.9-2.7c0.3-0.8,0.7-1.6,1.1-2.4c0.4-0.8,0.9-1.8,1.6-2.8C-4.6,17.8-3.2,16.3-1.4,15.4L-1.4,15.4z M-86.8,48.8
	c-1.2,1.3-2.2,2.7-3.2,4.2c-0.3,0.4-0.9,1-1.4,1.5c0.9-1.3,1.7-2.6,2.7-4c0.4-0.4,0.7-0.7,1-0.9C-87.4,49.2-87.1,49-86.8,48.8z
	 M23.6,23.2c-1.4,0-3-0.2-4.1-0.6c-2.1-0.7-3.7-1.8-5.4-2.8c0.6,0.3,1.2,0.5,1.7,0.7C18.3,21.9,20.8,23,23.6,23.2z M-17.9,37.9
	c-1.7,0.5-3.5,0.7-5.3,0.4c-0.9-0.1-2-0.6-2.9-1.1c1.4,0.4,2.9,0.8,4.1,0.8C-20.4,38.3-19.1,38.2-17.9,37.9z M-18.2,39.3
	c1.4-0.3,2.7-0.8,3.9-1.6c1.2-0.7,2.2-1.7,3-2.7c0.2-0.3,0.4-0.5,0.7-0.8l0.7-0.8c-0.5,0.8-1.1,1.6-1.8,2.3
	c-0.7,0.7-1.4,1.4-2.2,1.9C-15.6,38.7-17,39.1-18.2,39.3L-18.2,39.3z M21.8,22c-0.6-0.1-1.2-0.1-1.7-0.3c-2.1-0.6-3.9-1.7-5.7-2.6
	c1,0.5,2.1,1,3.5,1.6C19,21.2,20.4,21.7,21.8,22z M-34.5,33.4c-1-0.4-2.1-0.8-3.1-1.2c-1.1-0.4-2.1-0.9-3.2-1.1c1,0.1,2,0.4,3,0.7
	C-36.7,32.3-35.6,32.9-34.5,33.4z M-77.8,47.7l-0.5-0.1l-0.5,0c-0.2,0-0.3,0-0.5,0c-0.1,0-0.3,0-0.4,0c-1,0-1.9,0.1-2.9,0.5
	c0.7-0.3,1.4-0.6,2.3-0.7c0.2,0,0.4,0,0.6,0c0.2,0,0.4,0,0.6,0.1C-78.7,47.5-78.2,47.5-77.8,47.7L-77.8,47.7z M-47.4,34.5
	c-0.2,0.3-0.4,0.6-0.5,0.8c-1.1,1.2-2.1,2.8-3,4.5c0.4-0.9,0.8-1.8,1.5-3.1C-48.9,36-48.2,35.1-47.4,34.5z M-8.9,29.5
	c0.3-0.6,0.6-1,0.9-1.5c-0.4,0.9-0.8,1.8-1.3,2.8c-0.3,0.5-0.6,1.1-1.7,2.5c0.5-0.7,0.9-1.5,1.3-2.3L-8.9,29.5L-8.9,29.5z
	 M-21.2,39.6c-1,0-2-0.1-3-0.3c-0.9-0.2-1.8-0.5-2.6-0.9c0.9,0.3,1.8,0.6,2.9,0.8C-23.1,39.4-22.2,39.5-21.2,39.6z M-95.7,59.7
	c-0.4,0.4-0.8,0.7-1.2,1.1c-0.4,0.4-0.8,0.7-1.3,1c-0.5,0.3-1.2,0.7-1.8,0.9c0.6-0.4,1.2-0.9,1.9-1.4c0.5-0.3,0.9-0.6,1.3-0.8
	C-96.5,60.2-96.1,60-95.7,59.7L-95.7,59.7z M68.9,9.3c0.6-0.2,1.3-0.4,1.9-0.7l0.9-0.4c0.3-0.2,0.5-0.3,0.8-0.5
	c-0.3,0.2-0.6,0.5-0.9,0.7c-0.3,0.2-0.6,0.4-0.9,0.5c-1.3,0.6-2.6,1.1-5.1,1.2l1.3-0.2c0.4,0,0.7-0.2,0.9-0.2
	C68.3,9.5,68.6,9.4,68.9,9.3L68.9,9.3z M-43.4,31.1c-0.3,0-0.5,0.1-0.7,0.2c-0.2,0.1-0.5,0.2-0.7,0.2c-0.3,0.1-0.5,0.1-0.7,0.2
	l-0.4,0.1l-0.3,0.1l0.3-0.2l0.3-0.2l0.4-0.2l0.4-0.2c0.2,0,0.5-0.1,0.7-0.1C-43.8,31.1-43.6,31.1-43.4,31.1z M-6.5,27.2
	c-0.4,0.8-0.8,1.6-1.2,2.4c0.2-0.5,0.4-1,0.6-1.5c0.4-0.9,0.8-1.8,1.2-2.7l0.1-0.1C-6,26-6.3,26.6-6.5,27.2z M-8.8,30.3
	c0.2-0.3,0.4-0.5,0.6-0.8c-0.4,0.8-0.8,1.7-1.3,2.5c-0.2,0.3-0.4,0.5-1,1.3C-9.6,32-9.2,31.1-8.8,30.3L-8.8,30.3z M53,5
	c0.7,0.2,1.4,0.4,2,0.7c0.6,0.2,1,0.5,1.5,0.8c-0.7-0.3-1.4-0.5-2.4-0.9C53.9,5.4,53.5,5.2,53,5L53,5z M-51.6,38.2
	c0.6-1.2,1.2-2.4,2-3.5c0.3-0.4,0.6-0.7,0.9-1c-0.4,0.5-0.7,1-0.8,1.1C-50.5,36.2-51,37.2-51.6,38.2z M-30.2,36.9
	c-0.4-0.1-0.8-0.3-1.2-0.4c-0.7-0.3-1.3-0.7-1.9-1l1.7,0.7L-30.2,36.9L-30.2,36.9z M63.1,8.4c0.5,0,1,0.1,1.5,0.1l0.7,0
	c0.2,0,0.5-0.1,0.7-0.1c0.4,0,0.8,0,1.2-0.1c-0.4,0.1-0.7,0.2-1.1,0.3l-0.6,0.1l-0.6,0C64.2,8.6,63.6,8.5,63.1,8.4z M-55.9,45.3
	c0.2-0.4,0.5-0.7,0.7-1c-0.3,0.6-0.6,1.2-0.9,1.8c-0.3,0.4-0.5,0.8-1.5,2.1C-56.5,46.6-56.3,45.9-55.9,45.3z M-62.8,52.9
	c0.9-0.1,1.8-0.4,2.7-0.8c-0.2,0.1-0.4,0.2-0.6,0.3c-0.5,0.2-1,0.4-1.7,0.5c-0.3,0.1-0.7,0.1-1.1,0.2c-0.4,0-0.9,0.1-1.4,0
	C-63.6,53.1-63.2,53-62.8,52.9z M-53.4,43.7c0.1-0.3,0.3-0.5,0.4-0.8c-0.2,0.5-0.4,1-0.7,1.5c-0.1,0.2-0.2,0.3-0.5,0.7L-53.4,43.7z
	 M-86.9,49.6c0,0,0.4-0.4,0.5-0.7c0.3-0.2,0.6-0.4,0.8-0.5c0.1,0-0.3,0.4-0.7,0.8C-86.5,49.4-86.8,49.6-86.9,49.6L-86.9,49.6z
	 M-96.8,59.8c0.3-0.2,0.7-0.5,0.8-0.5c0.1,0-0.4,0.5-0.6,0.6c-0.3,0.2-0.6,0.4-1,0.6C-97.2,60.2-96.9,59.9-96.8,59.8z M-45.4,32.9
	c0.2-0.1,0.4-0.1,0.6-0.1c-0.3,0.1-0.5,0.3-0.7,0.4c-0.1,0-0.2,0.1-0.3,0.1l-0.3,0.1C-45.9,33.2-45.6,33-45.4,32.9L-45.4,32.9z
	 M3,15.7c-0.5,0-1,0.1-1.6,0.2c0.1-0.1,0.3-0.1,0.4-0.2c0.3,0,0.5,0,0.8-0.1c0.3,0,0.6,0,0.8,0C3.3,15.6,3.1,15.7,3,15.7L3,15.7z
	 M-11.2,32.9l0.7-1c-0.2,0.4-0.4,0.8-0.7,1.1c-0.3,0.4-0.5,0.7-1.2,1.4C-11.7,33.7-11.5,33.3-11.2,32.9z M-72.3,49.5
	c-0.3-0.1-0.6-0.2-0.9-0.3c0,0-0.5-0.3-0.5-0.3c0.1,0,0.3,0,0.5,0.1C-72.7,49.3-72.5,49.4-72.3,49.5L-72.3,49.5z M7.8,16.9
	c0.3,0.1,0.4,0.2,0.5,0.4c-0.2-0.1-0.5-0.2-0.7-0.3c-0.3-0.1-0.5-0.3-1-0.5C7.2,16.6,7.6,16.8,7.8,16.9z M-39.9,32.2
	c-0.4-0.1-0.7-0.1-1.1-0.2c-0.2,0-0.3-0.1-0.5-0.1l-0.5-0.1l0.5,0l0.5,0C-40.5,31.9-40.2,32.1-39.9,32.2z M-29.9,35.6
	c0.2,0.1,0.4,0.3,0.5,0.4c0,0-0.5-0.2-0.7-0.3c-0.3-0.2-0.6-0.3-1-0.6C-30.5,35.3-30.1,35.4-29.9,35.6z M-0.8,18.1
	c-0.1,0.1-0.3,0.3-0.4,0.4c-0.1,0.1-0.3,0.2-0.4,0.3c0.2-0.2,0.3-0.4,0.5-0.6L-0.8,18.1z M-126.7,135.2c0.7-0.2,1.4-0.3,2-0.4
	c-0.6,0.3-1.1,0.6-1.8,0.8c-2.6,1-5.4,1.6-8.2,1.9c0.6,0,1.3-0.1,1.9-0.1l1-0.1c0.3,0,0.6-0.1,1-0.1c-0.3,0.1-0.6,0.1-0.9,0.2
	c-0.3,0-0.6,0.1-0.9,0.1c-0.6,0.1-1.2,0.2-1.8,0.2c-0.7,0.1-1.3,0.2-1.9,0.2l-1.9,0.1l1.9,0.2c0.6,0,1.3,0,1.9,0
	c2.1-0.1,4.3-0.4,6.5-1c4.8-1.2,9.4-3.4,13.2-6.6c1.1-0.9,1.9-2,2.7-3c1-0.5,1.9-1,2.9-1.4l-0.1,0c0.5-0.4,1.1-0.8,1.7-1.1
	c0.6-0.3,1.1-0.6,1.7-0.8c0.3-0.1,0.5-0.1,0.8-0.2c0.3,0,0.5-0.1,0.8-0.1c0.5-0.1,1.1,0,1.7,0.1c1.2,0.2,2.6,0.7,4.1,1.2
	c0.8,0.2,1.6,0.5,2.6,0.6c0.9,0.1,2,0.2,3,0c0.2,0,0.5-0.1,0.7-0.1l0.7-0.2c0.2-0.1,0.5-0.1,0.7-0.2l0.7-0.3
	c0.2-0.1,0.5-0.2,0.7-0.4l0.6-0.4c0.4-0.3,0.8-0.6,1.1-0.9c1.3-1.3,2.2-2.7,3-4c0.8-1.3,1.4-2.6,2.1-3.7c0.7-1.1,1.4-2.1,2.1-2.9
	c1.2-1.2,2.7-1.8,4.4-1.9c1.7-0.1,3.8,0.1,5.9,0.5c2.2,0.3,4.4,0.8,6.9,1c2.5,0.2,5.2,0.3,8.1-0.4c2.8-0.7,5.3-2.3,7.3-3.9
	c2-1.6,3.7-3.4,5.3-5c1.3-1.4,2.6-2.6,3.9-3.7c1.3-1.1,2.6-1.9,3.9-2.5c1.3-0.5,2.8-0.8,4.5-0.9c1.6-0.1,3.4,0,5.3,0.1
	c1.9,0.1,3.8,0.3,5.9,0.4c2.1,0.1,4.3,0,6.6-0.5c1.2-0.2,2.3-0.7,3.4-1.2c0.6-0.3,1.1-0.6,1.6-0.9c0.5-0.4,1-0.7,1.5-1.1
	c1.9-1.5,3.3-3.1,4.5-4.6c1.2-1.5,2.4-2.8,3.5-3.8c1.1-1,2.1-1.4,3.2-1.5C6.6,82.7,8,83,9.6,83.5c1.6,0.6,3.4,1.3,5.4,2
	c2,0.7,4.4,1.3,7.1,1c1.3-0.1,2.6-0.5,3.8-1c1.2-0.5,2.2-1.1,3.2-1.8c1.9-1.3,3.4-2.7,4.8-4c1.4-1.3,2.7-2.3,4.1-3.3
	c6.1-4.3,13.9-6.6,21.7-9.3l23.4-8c5.5-1.9,11.6-4.1,16.3-6.1c7.4-3.1,7.2-5.4,0.4-4.4c-1.9,0.3-3.9,0.4-6.4,1.2
	c-7.6,2.2-15.5,5.1-23.2,7.3c-5.2,1.5-10.9,3.4-16.4,5.1c-5.2,1.7-10.6,3.4-15.8,6c-2.6,1.3-5.1,3-7.4,4.9c-2.2,1.9-4.1,3.7-5.9,4.9
	c-0.7,0.5-1.5,0.8-2.1,1.1c-0.7,0.2-1.3,0.3-2.1,0.3c-0.4,0-0.8-0.1-1.2-0.1c-0.4-0.1-0.8-0.2-1.3-0.3c-0.9-0.2-1.9-0.6-2.9-1
	c-2.1-0.8-4.4-1.8-7.4-2.1c-1.5-0.2-3.1-0.1-4.6,0.3c-1.6,0.4-3,1.1-4.2,2c-1.5,1-2.6,2.2-3.7,3.4c-1,1.1-1.9,2.2-2.8,3.2
	c-1.3,1.5-2.5,2.8-3.9,3.5c-1.4,0.8-3,1.2-4.8,1.3c-1.8,0.1-3.8,0-6-0.1c-2.1-0.1-4.3-0.3-6.7-0.3c-2.3,0-4.8,0.3-7.3,1.2
	c-2.5,0.9-4.6,2.3-6.4,3.8c-3.6,3.1-6.2,6.5-9.2,8.9c-1.1,0.9-2.3,1.7-3.5,2.2c-0.3,0.2-0.6,0.2-0.9,0.3l-0.5,0.2L-57,106
	c-0.6,0.1-1.3,0.2-2,0.3c-2.8,0.2-5.9-0.4-9.1-0.8c-1.6-0.2-3.3-0.4-5-0.4c-1.8,0-3.6,0.1-5.5,0.7c-0.9,0.3-1.8,0.7-2.7,1.2
	c-0.8,0.5-1.6,1.1-2.3,1.8c-1.4,1.4-2.3,2.9-3.1,4.4c-0.8,1.5-1.5,2.9-2.2,4.2c-0.7,1.3-1.5,2.4-2.4,3.1c-0.2,0.2-0.5,0.4-0.7,0.5
	l-0.4,0.2l-0.4,0.1c-0.5,0.2-1.1,0.3-1.7,0.3c-1.2,0-2.7-0.4-4.2-0.9c-1-0.3-2-0.6-3.2-0.7c-1.2-0.2-2.4-0.2-3.6,0.1
	c-1.2,0.2-2.3,0.7-3.3,1.2c-1,0.5-1.9,1.2-2.8,1.9c-1.7,1.3-3.1,2.8-4.6,4.1c-0.7,0.7-1.5,1.2-2.2,1.8l-1.2,0.8l-0.6,0.4l-0.6,0.4
	c-6.6,4-14.7,5.3-22.2,3.8c-1-0.2-1.9-0.4-2.8-0.6c-0.9-0.2-1.9-0.5-2.8-0.8c0.6,0.4,1.2,0.9,1.8,1.3c0.7,0.4,1.3,0.8,2.1,1.2
	c0.5,0.2,1.8,0.5,2.8,0.7c-1.2-0.1-2.4-0.5-3.5-0.7l-2.2-0.5l-2.1-0.6c2.7,1.5,5.7,2.7,8.8,3.3c0.1,0,0.8-0.1,1.4-0.1
	c0.8,0,1.7,0,2.6,0c1.4-0.2,2.7-0.5,4.3-0.9l0.6-0.1l0.6-0.2c0.4-0.1,0.9-0.2,1.4-0.3c0.5-0.1,1-0.2,1.5-0.4
	C-127.8,135.5-127.2,135.4-126.7,135.2L-126.7,135.2z M-44.9,101c-0.8,0.9-1.8,2-2.8,2.9c-0.2,0.2-0.4,0.3-0.6,0.4
	c0.9-0.9,1.7-1.8,2.5-2.7l1.4-1.6c0.4-0.5,0.8-1,1.3-1.5c1.7-1.8,3.6-3.5,5.9-4.7c0,0,0.2,0.1,0.1,0.1c-2.5,1.4-4.5,3.3-6.5,5.3
	c-0.3,0.3-0.6,0.6-0.9,0.9C-44.6,100.4-44.5,100.7-44.9,101L-44.9,101z M-86.4,117.4c-0.4,0.6-0.8,1.3-1.2,1.9
	c0.3-0.7,0.6-1.4,0.9-2.1c1.1-1.9,2.1-4,3.5-5.7c0.7-0.9,1.5-1.7,2.5-2.3c1-0.6,2-1.1,3.1-1.3c2.2-0.5,4.5-0.4,6.7-0.2
	c2.2,0.3,4.4,0.7,6.6,1c3.2,0.4,6.5,0.6,9.6-0.6c0.3-0.1,0.6-0.2,0.9-0.3l0.9-0.3l-0.8,0.5c-0.3,0.2-0.5,0.3-0.8,0.4l-1.2,0.4
	c-0.4,0.1-0.8,0.2-1.2,0.3c-0.8,0.1-1.6,0.2-2.4,0.2c-1.6,0.1-3.2-0.1-4.8-0.3c-0.9-0.1-1.9-0.1-2.5,0c-0.3,0,0,0.2,0,0.3
	c-1-0.3-2.1-0.5-2.9-0.8c-0.7-0.2-1-0.4-1.5-0.6c-0.8,0-1.6,0.1-2.3,0.2c-0.4,0.1-0.8,0.2-1.2,0.3c-0.2,0-0.3,0-0.5-0.1
	c0.6-0.1,1.2-0.2,1.8-0.2c-1.1-0.4-2.6-0.4-4.1,0c-1.5,0.4-2.8,1.3-3.9,2.2l0.4,0.2l-0.5,0.4c0-0.2,0.1-0.5,0.1-0.7
	c-1.1,0.9-2,2.1-2.8,3.4C-85,114.7-85.7,116.1-86.4,117.4L-86.4,117.4z M-97.5,122.8c1.2,0.3,2.4,0.6,3.7,0.5c1.2,0,2.5-0.5,3.5-1.2
	c-1.1,0.9-2.5,1.4-3.9,1.4c-1.4,0-2.8-0.3-4.2-0.7c-0.4-0.1-0.9-0.3-1.3-0.4c-1.5-0.4-3-0.9-4.5-0.8c1.7-0.3,3.4,0.1,4.9,0.4
	C-98.5,122.4-98,122.6-97.5,122.8z M-20.3,92.6l-5.4-0.3c-1.6-0.1-3.1-0.1-4.7,0c-0.9,0.1-1.9,0.2-2.8,0.4c0.8-0.3,1.7-0.5,2.6-0.7
	c1.5-0.2,3.2-0.2,5.4,0L-20.3,92.6z M-110.6,124.8c-1.2,1.1-2.3,2.3-3.5,3.6c-0.3,0.3-1,0.8-1.6,1.1c1-1,2-2.1,3.1-3.4
	C-111.8,125.6-111.2,125.2-110.6,124.8z M1.3,82.5c-0.8,0.7-1.5,1.6-2.2,2.3c-1.3,1.3-2.5,2.6-3.8,3.9c0.4-0.5,0.8-1,1.1-1.4
	C-1.9,85.4-0.4,83.7,1.3,82.5L1.3,82.5z M-43.2,100.6c-0.9,1.1-1.8,2.3-2.9,3.4c-0.5,0.6-1.4,1.1-2.2,1.7c0.5-0.5,1-1,1.4-1.4
	l1.2-1.3L-43.2,100.6z M-42.6,101.9c1.4-1.5,2.8-2.9,4.3-4.1c0.4-0.3,0.8-0.5,1.2-0.7c-1.1,0.8-2.2,1.8-3.1,2.6
	C-41.2,100.6-41.9,101.2-42.6,101.9L-42.6,101.9z M-0.5,82.7c-0.3,0.4-0.7,0.9-1,1.2c-1.3,1.4-2.5,2.9-3.9,4.3
	c0.7-0.8,1.4-1.7,2.3-2.8C-2.4,84.6-1.5,83.6-0.5,82.7z M-56.4,110.1c-1.1,0.3-2.3,0.5-3.5,0.5c-1.3,0-2.4-0.2-3.6-0.4
	c1.1,0.1,2.1,0.1,3.3,0C-58.8,110.3-57.6,110.3-56.4,110.1L-56.4,110.1z M-102,123.9c-0.6-0.1-1.2-0.1-1.8-0.1
	c-0.9,0-1.8,0.1-2.7,0.5c0.7-0.3,1.3-0.6,2.2-0.7C-103.5,123.6-102.8,123.7-102,123.9L-102,123.9z M-72.5,110.5
	c-0.3,0-0.7,0.1-1,0.1c-1.7-0.1-3.2-0.1-4.5,0.3c0.6-0.3,1.3-0.5,2.6-0.7C-74.6,110.2-73.6,110.3-72.5,110.5L-72.5,110.5z
	 M-34.8,94.7c0.5-0.1,1-0.2,1.4-0.2c-0.8,0.3-1.5,0.6-2.2,0.9c-0.2,0.1-0.4,0.2-0.8,0.3L-37,96c-0.2,0.1-0.5,0.2-0.8,0.4
	c0.4-0.3,0.7-0.5,1-0.7c0.3-0.2,0.5-0.4,0.8-0.5C-35.6,95.1-35.2,94.9-34.8,94.7L-34.8,94.7z M-44.1,103.6c-0.5,0.6-1.1,1.2-1.7,1.8
	c-0.3,0.3-0.6,0.6-0.9,0.8c-0.3,0.3-0.6,0.5-1,0.8c0.3-0.3,0.6-0.6,1-0.9c0.3-0.3,0.6-0.6,1-1C-45.2,104.6-44.7,104.1-44.1,103.6z
	 M-120.6,133.5c-0.4,0.3-0.9,0.5-1.3,0.8c-0.4,0.3-0.9,0.5-1.4,0.7c-0.5,0.2-1.2,0.4-1.9,0.5c0.6-0.3,1.2-0.6,2-1
	C-122.3,134.2-121.5,133.9-120.6,133.5L-120.6,133.5z M45.1,70.2c1.1-0.4,2.1-0.6,3.1-0.9c-0.5,0.2-1.1,0.5-1.6,0.7
	c-1.1,0.4-2.1,0.8-4,1.5C43.9,70.7,44.6,70.4,45.1,70.2L45.1,70.2z M-66.3,110c-0.6,0-1.2,0-1.7-0.1c-0.6-0.1-1.1-0.3-1.6-0.4
	l1.8,0.1L-66.3,110L-66.3,110z M-32.2,95.2c-0.3,0.1-0.7,0.1-1,0.2l-1,0.2c0.4-0.1,0.7-0.4,1.1-0.4l1.1-0.2c0.4,0,0.8-0.1,1.2-0.1
	l0.1,0.1l-0.8,0.1C-31.7,95.1-31.9,95.2-32.2,95.2z M-35.2,95.4c0.2-0.1,0.5-0.1,0.7-0.1c-0.3,0.1-0.6,0.3-1,0.4l-0.5,0.2
	c-0.2,0.1-0.3,0.2-0.5,0.3c-0.2,0.1-0.5,0.2-1.1,0.5c0.5-0.4,0.9-0.6,1.3-0.8C-35.8,95.7-35.5,95.6-35.2,95.4L-35.2,95.4z
	 M31.7,76.9c0.5-0.5,1-1,1.4-1.4c0.5-0.4,0.9-0.6,1.4-0.9c-0.5,0.5-1.1,0.9-1.8,1.6L31.7,76.9z M-77.6,109.4
	c1.1-0.3,2.3-0.5,3.5-0.5c0.4,0,0.9,0.1,1.3,0.1c-0.6,0-1.2,0-1.3,0C-75.6,109-76.6,109.2-77.6,109.4L-77.6,109.4z M-50.7,109.1
	c-0.4,0.3-0.7,0.6-1.1,0.8c-0.7,0.3-1.4,0.7-2.2,0.9c0.6-0.2,1.1-0.5,1.8-0.9C-51.7,109.7-51.2,109.4-50.7,109.1z M39.8,71.1
	c0.8-0.5,1.6-0.9,2.5-1.4c0.3-0.2,0.7-0.3,1.1-0.4c-0.6,0.4-1.3,0.7-2,1.1C40.8,70.7,40.3,70.9,39.8,71.1L39.8,71.1z M-83.5,113
	c0.2-0.3,0.5-0.5,0.7-0.8c-0.3,0.5-0.6,1-1,1.5c-0.2,0.4-0.5,0.7-1.2,1.9C-84.2,114.1-83.8,113.6-83.5,113z M-86.7,121.5l0.7-0.9
	l0.7-0.9c-0.1,0.2-0.1,0.3-0.2,0.5l-0.4,0.6l-0.5,0.6c-0.2,0.3-0.4,0.5-0.6,0.8c-0.2,0.3-0.5,0.6-0.9,0.9c0.4-0.4,0.6-0.8,0.8-1
	C-87.1,122-86.7,121.5-86.7,121.5z M-80.9,112.3c0.2-0.2,0.3-0.3,0.5-0.4c-0.3,0.2-0.5,0.6-0.8,0.9l-0.5,0.5
	C-81.4,112.8-81.1,112.6-80.9,112.3L-80.9,112.3z M-110.7,125.6c0,0,0.4-0.4,0.6-0.6c0.3-0.1,0.6-0.3,0.8-0.4c0.1,0-0.3,0.3-0.7,0.7
	C-110.3,125.5-110.6,125.7-110.7,125.6L-110.7,125.6z M-121.6,133.4c0.3-0.1,0.7-0.3,0.8-0.3c0.1,0-0.4,0.4-0.6,0.5
	c-0.3,0.1-0.6,0.2-1.1,0.4C-122.1,133.7-121.8,133.5-121.6,133.4z M-69.4,110.8c0.3,0.1,0.5,0.2,0.7,0.3c-0.4,0-0.8-0.1-1.1-0.1
	c-0.3,0-0.5-0.1-0.8-0.2C-70.1,110.7-69.6,110.7-69.4,110.8z M-16,94.1l-0.9,0.1l-0.9,0c0.2,0,0.3-0.1,0.5-0.1c0.6,0,1.2,0,1.8,0
	C-15.7,94-15.8,94.1-16,94.1L-16,94.1z M-38,96c0.3-0.2,0.6-0.3,0.9-0.5c-0.3,0.2-0.6,0.4-0.9,0.6c-0.3,0.2-0.6,0.4-1.2,0.8
	C-38.6,96.4-38.3,96.2-38,96z M-96.1,124.6c-0.3,0-0.6,0-1,0c0,0-0.6-0.2-0.6-0.2c0.1,0,0.3-0.1,0.5-0.1
	C-96.6,124.4-96.3,124.5-96.1,124.6L-96.1,124.6z M-10.5,93c0.3-0.1,0.5-0.1,0.7-0.1c-0.2,0.2-0.6,0.3-0.8,0.4
	c-0.3,0.1-0.6,0.2-1.3,0.3C-11.1,93.3-10.7,93.1-10.5,93L-10.5,93z M-62.3,111.2c-0.4,0-0.8,0-1.3-0.1c-0.4,0-0.7-0.1-1.1-0.2
	l1.2,0.1C-63,111.1-62.7,111.1-62.3,111.2L-62.3,111.2z M-51.6,108c0.2-0.1,0.4-0.2,0.6-0.2c0,0-0.4,0.3-0.6,0.4
	c-0.4,0.2-0.7,0.4-1.1,0.5C-52.1,108.4-51.8,108.2-51.6,108L-51.6,108z M-21.4,95.3c-0.3,0-0.5,0-0.8,0c-0.2,0-0.4-0.1-0.6-0.1l1,0
	C-21.6,95.2-21.5,95.2-21.4,95.3z"/>
</svg>
